# xmcd
#
# Track frame offsets: 
#        150
#        13497
#        27863
#        41909
#        55989
#        69017
#        82417
#        95660
#        110214
#        138022
#        150659
#        163492
#        176370
#        190689
#        205607
#        220152
#        233745
#        248237
#        262562
#
# Disc length: 3653 seconds
#
# Revision: 0
# Processed by: cddbd v1.5.2PL0 Copyright (c) Steve Scherf et al.
# Submitted via: ExactAudioCopy v0.95b3
#
DISCID=070e4313
DTITLE=Count Basie  - Volume 9 1939 Complete Edition
DYEAR=1900
DGENRE=
TTITLE0=Oh! Red
TTITLE1=Fare Thee Honey. Fare Thee Well
TTITLE2=Fare Thee Honey. Fare Thee Well
TTITLE3=Dupree Blues
TTITLE4=When The Sun Goes Down ( In The Evenin')
TTITLE5=When The Sun Goes Down
TTITLE6=Red Wagon (Your Red Wagon) (Little Red Wagon)
TTITLE7=You Can Depend On Me
TTITLE8=Cherokee (Part 1 and 2)
TTITLE9=Blame On My Last Affair
TTITLE10=Blame On My Last Affair
TTITLE11=Jive At Five
TTITLE12=Thursday
TTITLE13=Evil Blues
TTITLE14=Oh. Lady Be Good
TTITLE15=I Ain't Got Nobody
TTITLE16=Goin' To Chicago
TTITLE17=(Let Me) Live And Love Tonight
TTITLE18=Love Me Or Leave Me
EXTD=
EXTT0=
EXTT1=
EXTT2=
EXTT3=
EXTT4=
EXTT5=
EXTT6=
EXTT7=
EXTT8=
EXTT9=
EXTT10=
EXTT11=
EXTT12=
EXTT13=
EXTT14=
EXTT15=
EXTT16=
EXTT17=
EXTT18=
PLAYORDER=
